<svg xmlns="http://www.w3.org/2000/svg" viewBox="0 0 725 725"><defs><style>.cls-1{fill:#fff;}</style></defs><g id="Calque_2" data-name="Calque 2"><g id="Calque_1-2" data-name="Calque 1"><path class="cls-1" d="M363,1.5A361.59,361.59,0,0,1,503.71,696.09,361.59,361.59,0,0,1,222.29,29.91,359.25,359.25,0,0,1,363,1.5m-46.5,306H81.5a21,21,0,0,0-21,21v35a21,21,0,0,0,21,21h235v252a21,21,0,0,0,21,21h35a21,21,0,0,0,21-21v-252h235a21,21,0,0,0,21-21v-35a21,21,0,0,0-21-21h-235V89.5a21,21,0,0,0-21-21h-35a21,21,0,0,0-21,21v218M363,.5C162.8.5.5,162.8.5,363S162.8,725.5,363,725.5,725.5,563.2,725.5,363,563.2.5,363,.5ZM81.5,383.5a20,20,0,0,1-20-20v-35a20,20,0,0,1,20-20h236V89.5a20,20,0,0,1,20-20h35a20,20,0,0,1,20,20v219h236a20,20,0,0,1,20,20v35a20,20,0,0,1-20,20h-236v253a20,20,0,0,1-20,20h-35a20,20,0,0,1-20-20v-253Z" transform="translate(-0.5 -0.5)"/><path class="cls-1" d="M372.5,70.5a19,19,0,0,1,19,19v220h237a19,19,0,0,1,19,19v35a19,19,0,0,1-19,19h-237v254a19,19,0,0,1-19,19h-35a19,19,0,0,1-19-19v-254H81.5a19,19,0,0,1-19-19v-35a19,19,0,0,1,19-19h237V89.5a19,19,0,0,1,19-19h35m0-1h-35a20,20,0,0,0-20,20v219H81.5a20,20,0,0,0-20,20v35a20,20,0,0,0,20,20h236v253a20,20,0,0,0,20,20h35a20,20,0,0,0,20-20v-253h236a20,20,0,0,0,20-20v-35a20,20,0,0,0-20-20h-236V89.5a20,20,0,0,0-20-20Z" transform="translate(-0.5 -0.5)"/></g></g></svg>